# xmcd
#
# Track frame offsets:
#	150
#	15077
#	23280
#	32635
#	46155
#	57012
#	73305
#	89677
#	106375
#	126885
#	176875
#
# Disc length: 2644 seconds
#
# Revision: 1
# Processed by: cddbd v1.5.1PL0 Copyright (c) Steve Scherf et al.
# Submitted via: CDex 1.50Beta5
#
DISCID=860a520b
DTITLE=キャンディーズ - キャンディーズ1676日 Disc 5
DYEAR=2000
DGENRE=Pop
TTITLE0=銀河系まで飛んで行け!
TTITLE1=恋のタッチダウン
TTITLE2=ふたりぼっちの夜間飛行
TTITLE3=愛の回転木馬〜あなたは誰?
TTITLE4=私を憶い出して
TTITLE5=銀河空港
TTITLE6=めざめ
TTITLE7=アン・ドゥ・トロワ パートII
TTITLE8=エトセトラ
TTITLE9=キャンディーズ1676日
TTITLE10=つばさ
EXTD=
EXTT0=
EXTT1=
EXTT2=
EXTT3=
EXTT4=
EXTT5=
EXTT6=
EXTT7=
EXTT8=
EXTT9=
EXTT10=
PLAYORDER=
